:SAMPLES-PER-SECOND 30
:FULLY-SPECIFIED
:DEGREES
248
root  5.12711 40.2782 -4.7376 8.23854 86.9086 8.07988
RightUpLeg  -18.3666 -13.9587 -7.56579
RightLeg  22.0139 -1.70561 -1.07202
RightFoot  0.0183267 -0.487001 4.90272
RightToes  0.000482159 0.542163 -0.142577
Spine  12.5129 0.356628 2.89043
Spine1  12.1805 2.11151 -5.23455
HEad  27.1444 15.3802 -6.28609
LeftShoulder1  6.43118 -9.63756 -42.5007
LeftArm  -21.4984 28.3461 -28.3146
LeftForeArm  23.4592 -30.6833 -5.39167
LeftHand  -0.25398 0.0180481 5.50724
RightShoulder  5.7072 9.5513 37.6843
RightArm  6.05179 -24.6742 36.2915
RightForeArm  -4.06345 23.5756 5.24986
RightHand  -0.786091 -0.164851 -17.4175
LeftUpLeg  3.27555 6.91501 4.03452
LeftLeg  9.91839 7.74089 -2.66138
LeftFoot  -12.0331 0.0454859 -4.42472
LeftToes  1.06245e-005 4.65856e-005 -8.18503e-006
249
root  4.61831 40.4243 -5.01247 5.01492 87.2549 4.77728
RightUpLeg  -16.9787 -11.2799 -7.5998
RightLeg  27.8072 -3.28528 -2.09894
RightFoot  -2.03133 -0.42822 5.09623
RightToes  0.000482159 0.542163 -0.142577
Spine  11.4358 0.0984299 1.69985
Spine1  11.8362 1.28802 -4.00591
HEad  24.7423 13.8331 -5.31868
LeftShoulder1  6.53352 -9.8022 -42.6541
LeftArm  -19.8993 29.4643 -27.838
LeftForeArm  22.5031 -29.8857 -5.25674
LeftHand  -0.25398 0.0180481 5.50724
RightShoulder  5.64245 9.43647 37.576
RightArm  4.7064 -24.4866 35.7727
RightForeArm  -4.78654 23.948 5.36003
RightHand  -0.872735 0.165508 -18.1859
LeftUpLeg  3.11624 6.6084 4.03833
LeftLeg  8.25306 7.65137 -3.39365
LeftFoot  -10.9285 0.0813903 -4.56099
LeftToes  1.06245e-005 4.65856e-005 -8.18503e-006
250
root  4.17062 40.5025 -5.22802 9.06181 87.1902 8.62167
RightUpLeg  -15.5374 -9.23067 -7.52708
RightLeg  32.6436 -3.87232 -2.90566
RightFoot  -3.91079 -0.383822 5.48988
RightToes  0.000482159 0.542163 -0.142577
Spine  10.1606 0.0293873 0.573224
Spine1  11.5717 0.928082 -3.48213
HEad  22.3373 11.5982 -3.97755
LeftShoulder1  6.61091 -9.93507 -42.7392
LeftArm  -18.2016 29.7556 -27.1023
LeftForeArm  22.1517 -28.4923 -4.95372
LeftHand  -0.25398 0.0180481 5.50724
RightShoulder  5.58512 9.30868 37.5639
RightArm  3.49197 -24.0198 35.4135
RightForeArm  -6.83636 23.7981 5.43138
RightHand  -1.03403 0.755444 -19.528
LeftUpLeg  2.76294 6.40795 3.54611
LeftLeg  6.96145 8.0471 -3.88837
LeftFoot  -9.95869 0.111634 -4.29889
LeftToes  1.06245e-005 4.65856e-005 -8.18503e-006
251
root  3.76947 40.5339 -5.40088 17.308 86.7869 16.5164
RightUpLeg  -13.8682 -7.41521 -7.35899
RightLeg  35.8019 -3.93372 -3.29528
RightFoot  -6.12013 -0.280621 5.20113
RightToes  0.000482159 0.542163 -0.142577
Spine  8.74998 0.124879 -0.296791
Spine1  11.2253 0.978158 -3.5521
HEad  20.2865 8.90043 -2.51627
LeftShoulder1  6.6935 -10.0993 -42.7531
LeftArm  -16.6485 29.4748 -26.4137
LeftForeArm  22.0586 -26.6991 -4.55609
LeftHand  -0.25398 0.0180481 5.50724
RightShoulder  5.54774 9.20925 37.6091
RightArm  2.82771 -23.3017 35.0985
RightForeArm  -8.71732 23.1339 5.42958
RightHand  -1.10794 1.03684 -20.0172
LeftUpLeg  2.20829 6.16928 2.80141
LeftLeg  6.01155 8.64338 -4.30453
LeftFoot  -9.24399 0.136926 -4.4366
LeftToes  1.06245e-005 4.65856e-005 -8.18503e-006
252
root  3.41123 40.5578 -5.54602 24.5627 86.3457 23.2969
RightUpLeg  -11.6594 -6.2157 -7.00052
RightLeg  36.2558 -3.7379 -3.19859
RightFoot  -8.25974 -0.176372 4.48527
RightToes  0.000482159 0.542163 -0.142577
Spine  7.26861 0.249817 -0.839547
Spine1  10.7421 1.15662 -3.75056
HEad  18.6412 6.13426 -1.26727
LeftShoulder1  6.83734 -10.3456 -42.9057
LeftArm  -15.315 28.9792 -25.836
LeftForeArm  21.6538 -24.8578 -4.17678
LeftHand  -0.25398 0.0180481 5.50724
RightShoulder  5.5329 9.17845 37.5984
RightArm  2.40093 -22.432 34.7717
RightForeArm  -9.21762 22.1957 5.44118
RightHand  -0.989918 0.6359 -19.0416
LeftUpLeg  1.57952 5.96892 2.16762
LeftLeg  5.13993 8.96958 -4.82956
LeftFoot  -8.73964 0.168259 -5.10189
LeftToes  1.06245e-005 4.65856e-005 -8.18503e-006
253
root  3.08559 40.5545 -5.65986 31.0163 85.8007 29.2762
RightUpLeg  -8.79704 -6.20608 -6.75978
RightLeg  33.6082 -3.2503 -2.57751
RightFoot  -9.57135 -0.132425 4.40545
RightToes  0.000482159 0.542163 -0.142577
Spine  5.85059 0.389849 -1.3328
Spine1  10.2562 1.36126 -3.97139
HEad  17.1142 3.69304 -0.38349
LeftShoulder1  7.03879 -10.6383 -43.2797
LeftArm  -14.3554 28.4199 -25.3596
LeftForeArm  20.838 -23.3347 -3.90863
LeftHand  -0.25398 0.0180481 5.50724
RightShoulder  5.55431 9.24847 37.5293
RightArm  2.04716 -21.3643 34.4569
RightForeArm  -8.53098 21.3102 5.49667
RightHand  -0.835318 0.104441 -17.6336
LeftUpLeg  0.817671 5.78537 1.5002
LeftLeg  4.63978 9.32913 -5.2955
LeftFoot  -8.40432 0.195139 -5.64716
LeftToes  1.06245e-005 4.65856e-005 -8.18503e-006
254
root  2.77425 40.5215 -5.74089 36.3764 84.9732 34.2863
RightUpLeg  -5.34727 -7.85486 -6.934
RightLeg  28.2769 -2.85774 -1.90204
RightFoot  -10.4305 -0.110215 5.04292
RightToes  0.000482159 0.542163 -0.142577
Spine  4.6744 0.576269 -1.90591
Spine1  9.86756 1.62902 -4.25582
HEad  15.4256 1.71653 0.199542
LeftShoulder1  7.25984 -10.9425 -43.7253
LeftArm  -13.6423 27.7566 -24.963
LeftForeArm  19.9411 -22.2962 -3.79601
LeftHand  -0.25398 0.0180481 5.50724
RightShoulder  5.59427 9.36248 37.4565
RightArm  1.8349 -20.0299 34.2734
RightForeArm  -7.68501 20.7776 5.54434
RightHand  -0.811594 0.116988 -17.092
LeftUpLeg  0.0277158 5.45992 0.583506
LeftLeg  4.44245 10.1506 -5.56546
LeftFoot  -8.01146 0.210389 -5.58967
LeftToes  1.06245e-005 4.65856e-005 -8.18503e-006
255
root  2.47139 40.5135 -5.79462 39.4397 83.9852 37.1508
RightUpLeg  -1.63532 -11.2425 -7.45886
RightLeg  21.3709 -3.02288 -1.50771
RightFoot  -11.8304 -0.0609461 5.02019
RightToes  0.000482159 0.542163 -0.142577
Spine  3.83526 0.769593 -2.27147
Spine1  9.50934 1.94898 -4.4989
HEad  13.5279 0.151207 0.508668
LeftShoulder1  7.50579 -11.2895 -44.1702
LeftArm  -12.7249 26.9269 -24.5349
LeftForeArm  19.1472 -21.7392 -3.78757
LeftHand  -0.25398 0.0180481 5.50724
RightShoulder  5.62902 9.46133 37.3952
RightArm  1.77656 -18.4618 34.3157
RightForeArm  -7.41439 20.7549 5.53433
RightHand  -0.885777 0.525117 -17.3967
LeftUpLeg  -0.39126 4.99595 -0.373621
LeftLeg  3.75237 11.2686 -5.85611
LeftFoot  -7.25323 0.222559 -5.02547
LeftToes  1.06245e-005 4.65856e-005 -8.18503e-006
256
root  2.16504 40.5544 -5.82212 40.2096 83.0223 37.7826
RightUpLeg  1.49093 -14.0155 -8.19564
RightLeg  14.7836 -4.6072 -0.655291
RightFoot  -13.57 -0.0266429 3.42594
RightToes  0.000482159 0.542163 -0.142577
Spine  3.29391 0.907933 -2.1852
Spine1  9.13262 2.24784 -4.69821
HEad  11.5265 -0.966183 0.443933
LeftShoulder1  7.82142 -11.7042 -44.8022
LeftArm  -11.5397 25.8463 -23.8976
LeftForeArm  18.5043 -21.5239 -3.82465
LeftHand  -0.25398 0.0180481 5.50724
RightShoulder  5.69068 9.59022 37.437
RightArm  1.82987 -16.5785 34.456
RightForeArm  -7.52342 21.0534 5.48425
RightHand  -0.940147 0.827759 -17.5912
LeftUpLeg  -0.433392 4.52884 -1.09397
LeftLeg  2.37407 12.3905 -6.31787
LeftFoot  -6.14748 0.236761 -4.40257
LeftToes  1.06245e-005 4.65856e-005 -8.18503e-006
257
root  1.82674 40.6116 -5.82836 38.7588 82.1502 36.1506
RightUpLeg  3.01342 -12.0906 -8.75887
RightLeg  10.4997 -8.91093 1.13541
RightFoot  -14.3847 -0.0566118 1.45757
RightToes  0.000482159 0.542163 -0.142577
Spine  2.98894 0.971892 -1.54204
Spine1  8.80627 2.49278 -5.11675
HEad  9.55383 -1.54624 -0.0268339
LeftShoulder1  8.18555 -12.1098 -45.7073
LeftArm  -10.4162 24.275 -23.1276
LeftForeArm  18.0704 -21.2121 -3.85925
LeftHand  -0.25398 0.0180481 5.50724
RightShoulder  5.80915 9.78002 37.6983
RightArm  1.95771 -14.1702 34.5384
RightForeArm  -7.15104 21.2648 5.43232
RightHand  -0.92485 0.918858 -17.0684
LeftUpLeg  -0.633217 4.13171 -1.51704
LeftLeg  1.13691 13.568 -6.64622
LeftFoot  -4.9941 0.248445 -3.9379
LeftToes  1.06245e-005 4.65856e-005 -8.18503e-006
258
root  1.44033 40.6769 -5.826 34.3655 81.4682 31.5476
RightUpLeg  2.97929 -10.824 -8.6491
RightLeg  8.63314 -9.82221 2.26995
RightFoot  -13.658 -0.0806551 0.599558
RightToes  0.000482159 0.542163 -0.142577
Spine  3.01824 0.989799 -0.111905
Spine1  8.50944 2.72282 -5.83962
HEad  7.68272 -1.7147 -0.75667
LeftShoulder1  8.47326 -12.3917 -46.501
LeftArm  -9.69269 22.007 -22.7719
LeftForeArm  18.022 -20.3002 -3.8978
LeftHand  -0.25398 0.0180481 5.50724
RightShoulder  5.92421 9.94844 37.9954
RightArm  2.12151 -11.3507 34.751
RightForeArm  -5.97891 21.3445 5.36173
RightHand  -0.868494 0.938821 -15.9988
LeftUpLeg  -1.29003 3.81471 -1.53933
LeftLeg  0.638848 14.9441 -6.50331
LeftFoot  -3.95198 0.229463 -3.19038
LeftToes  1.06245e-005 4.65856e-005 -8.18503e-006
259
root  1.00222 40.7328 -5.80229 28.9363 80.873 25.9966
RightUpLeg  2.06676 -10.5458 -8.07061
RightLeg  8.44473 -8.72144 2.57645
RightFoot  -12.3828 -0.0800043 0.405506
RightToes  0.000482159 0.542163 -0.142577
Spine  3.619 1.02029 1.47528
Spine1  8.09044 2.90825 -6.50303
HEad  5.83889 -1.72523 -1.53013
LeftShoulder1  8.60293 -12.5732 -46.6845
LeftArm  -9.53841 19.3106 -23.3594
LeftForeArm  18.4456 -19.0038 -3.99529
LeftHand  -0.25398 0.0180481 5.50724
RightShoulder  5.96506 10.0661 37.9176
RightArm  2.39763 -8.65357 35.3959
RightForeArm  -4.92204 21.8035 5.25492
RightHand  -0.802996 0.863909 -14.9828
LeftUpLeg  -2.38106 3.59238 -1.34431
LeftLeg  1.04745 16.4317 -5.91655
LeftFoot  -3.08618 0.145692 -1.76873
LeftToes  1.06245e-005 4.65856e-005 -8.18503e-006
260
root  0.535182 40.7632 -5.74581 26 80.4349 23.0619
RightUpLeg  0.89194 -10.5344 -7.48119
RightLeg  8.98461 -8.21365 2.52488
RightFoot  -11.598 -0.0789346 -0.153873
RightToes  0.000482159 0.542163 -0.142577
Spine  4.72389 0.974498 2.27899
Spine1  7.50564 2.82897 -6.45345
HEad  3.90333 -1.63904 -2.18889
LeftShoulder1  8.67071 -12.8374 -46.2825
LeftArm  -9.47584 16.8638 -24.6538
LeftForeArm  18.8703 -18.361 -4.09574
LeftHand  -0.25398 0.0180481 5.50724
RightShoulder  5.97676 10.2542 37.42
RightArm  2.87978 -6.43662 36.3136
RightForeArm  -4.69786 23.012 5.23537
RightHand  -0.749274 0.656385 -14.4529
LeftUpLeg  -3.62732 3.36336 -1.26284
LeftLeg  1.90798 17.6185 -5.25236
LeftFoot  -2.27783 0.0399735 -0.325081
LeftToes  1.06245e-005 4.65856e-005 -8.18503e-006
261
root  0.0918244 40.7561 -5.66796 27.234 80.5064 24.2958
RightUpLeg  -0.206573 -10.8858 -7.33634
RightLeg  9.75021 -8.48223 2.56787
RightFoot  -11.3746 -0.0773784 -0.899244
RightToes  0.000482159 0.542163 -0.142577
Spine  5.77588 0.676846 2.16381
Spine1  6.95284 2.2899 -5.59163
HEad  2.02407 -1.37813 -2.6781
LeftShoulder1  8.82753 -13.3007 -45.8067
LeftArm  -8.5474 15.0412 -25.7676
LeftForeArm  18.9015 -19.0855 -4.08563
LeftHand  -0.25398 0.0180481 5.50724
RightShoulder  6.04327 10.5617 36.9565
RightArm  3.42287 -4.5858 36.997
RightForeArm  -4.33884 24.6413 5.48608
RightHand  -0.714848 0.466544 -14.2197
LeftUpLeg  -4.96116 3.18612 -1.47448
LeftLeg  3.04107 17.8523 -4.57445
LeftFoot  -1.85157 0.0149346 -0.0397842
LeftToes  1.06245e-005 4.65856e-005 -8.18503e-006
262
root  -0.269024 40.727 -5.58859 31.0292 81.1521 28.0217
RightUpLeg  -0.933495 -11.3789 -7.50964
RightLeg  10.261 -8.99538 2.90232
RightFoot  -11.266 -0.0755659 -1.1202
RightToes  0.000482159 0.542163 -0.142577
Spine  6.30776 0.159474 1.87985
Spine1  6.64413 1.48137 -4.56089
HEad  0.680259 -1.04232 -3.03596
LeftShoulder1  9.05474 -13.7937 -45.641
LeftArm  -6.75977 13.5231 -26.1724
LeftForeArm  19.3078 -20.7446 -3.96391
LeftHand  -0.25398 0.0180481 5.50724
RightShoulder  6.13563 10.809 36.8618
RightArm  4.20814 -2.99341 37.2594
RightForeArm  -3.02024 26.1375 5.77003
RightHand  -0.679471 0.366113 -13.7451
LeftUpLeg  -6.40671 3.66322 -1.9208
LeftLeg  4.77342 16.7076 -3.50622
LeftFoot  -2.66082 0.0851237 -0.933708
LeftToes  1.06245e-005 4.65856e-005 -8.18503e-006
